<svg xmlns="http://www.w3.org/2000/svg" viewBox="0 0 512 512" role="img" aria-label="kill-the-resume tactical icon">
  <defs>
    <linearGradient id="paper" x1="144" y1="72" x2="392" y2="440" gradientUnits="userSpaceOnUse">
      <stop offset="0" stop-color="#f8fff9"/>
      <stop offset="0.58" stop-color="#dff6e6"/>
      <stop offset="1" stop-color="#7d8b99"/>
    </linearGradient>
    <linearGradient id="edge" x1="64" y1="40" x2="464" y2="472" gradientUnits="userSpaceOnUse">
      <stop offset="0" stop-color="#39ff88"/>
      <stop offset="0.48" stop-color="#58e6ff"/>
      <stop offset="1" stop-color="#ff8a3d"/>
    </linearGradient>
    <filter id="glow" x="-40%" y="-40%" width="180%" height="180%">
      <feGaussianBlur stdDeviation="12" result="blur"/>
      <feColorMatrix in="blur" type="matrix" values="0 0 0 0 0.22 0 0 0 0 1 0 0 0 0 0.53 0 0 0 0.85 0" result="greenGlow"/>
      <feMerge><feMergeNode in="greenGlow"/><feMergeNode in="SourceGraphic"/></feMerge>
    </filter>
    <clipPath id="cut"><path d="M176 80h136l72 72v272H144V112a32 32 0 0 1 32-32Z"/></clipPath>
  </defs>
  <rect width="512" height="512" rx="72" fill="#060a0f"/>
  <path d="M64 104h72M376 104h72M64 408h72M376 408h72M104 64v72M408 64v72M104 376v72M408 376v72" stroke="#39ff88" stroke-width="18" stroke-linecap="square" opacity="0.9" filter="url(#glow)"/>
  <path d="M256 44v92M256 376v92M44 256h92M376 256h92" stroke="#58e6ff" stroke-width="14" stroke-linecap="square" opacity="0.72"/>
  <path d="M176 80h136l72 72v272H144V112a32 32 0 0 1 32-32Z" fill="url(#paper)"/>
  <path d="M312 80v80h72" fill="none" stroke="#0d1117" stroke-width="16" stroke-linejoin="miter" opacity="0.8"/>
  <g clip-path="url(#cut)">
    <path d="M120 264 232 224 200 296 304 240 256 352 408 280" fill="none" stroke="#ff2f3d" stroke-width="38" stroke-linecap="square" stroke-linejoin="miter" opacity="0.95"/>
    <path d="M184 184h144M184 232h96M184 368h160" stroke="#0d1117" stroke-width="16" stroke-linecap="square" opacity="0.55"/>
  </g>
  <path d="M176 80h136l72 72v272H144V112a32 32 0 0 1 32-32Z" fill="none" stroke="url(#edge)" stroke-width="20" filter="url(#glow)"/>
  <path d="M173 307h56v32h-24v32h-32Zm80 0h32v96h-32Zm48 0h64v32h-32v64h-32Z" fill="#0d1117" opacity="0.92"/>
  <path d="M168 302h56v32h-24v32h-32Zm80 0h32v96h-32Zm48 0h64v32h-32v64h-32Z" fill="#39ff88" filter="url(#glow)"/>
</svg>
