<svg xmlns="http://www.w3.org/2000/svg" viewBox="0 0 64 64" role="img" aria-label="kill-the-resume tactical icon">
  <defs>
    <linearGradient id="paper" x1="18" y1="9" x2="48" y2="55" gradientUnits="userSpaceOnUse">
      <stop offset="0" stop-color="#f8fff9"/>
      <stop offset="0.58" stop-color="#dff6e6"/>
      <stop offset="1" stop-color="#7d8b99"/>
    </linearGradient>
    <linearGradient id="edge" x1="8" y1="5" x2="58" y2="59" gradientUnits="userSpaceOnUse">
      <stop offset="0" stop-color="#39ff88"/>
      <stop offset="0.48" stop-color="#58e6ff"/>
      <stop offset="1" stop-color="#ff8a3d"/>
    </linearGradient>
    <filter id="glow" x="-40%" y="-40%" width="180%" height="180%">
      <feGaussianBlur stdDeviation="1.4" result="blur"/>
      <feColorMatrix in="blur" type="matrix" values="0 0 0 0 0.22 0 0 0 0 1 0 0 0 0 0.53 0 0 0 0.85 0" result="greenGlow"/>
      <feMerge>
        <feMergeNode in="greenGlow"/>
        <feMergeNode in="SourceGraphic"/>
      </feMerge>
    </filter>
    <clipPath id="cut">
      <path d="M22 10h17l9 9v34H18V14a4 4 0 0 1 4-4Z"/>
    </clipPath>
  </defs>

  <rect width="64" height="64" rx="10" fill="#060a0f"/>
  <path d="M8 13h9M47 13h9M8 51h9M47 51h9M13 8v9M51 8v9M13 47v9M51 47v9" stroke="#39ff88" stroke-width="2" stroke-linecap="square" opacity="0.9" filter="url(#glow)"/>
  <path d="M32 6v10M32 48v10M6 32h10M48 32h10" stroke="#58e6ff" stroke-width="1.5" stroke-linecap="square" opacity="0.72"/>

  <path d="M22 10h17l9 9v34H18V14a4 4 0 0 1 4-4Z" fill="url(#paper)"/>
  <path d="M39 10v10h9" fill="none" stroke="#0d1117" stroke-width="2" stroke-linejoin="miter" opacity="0.8"/>
  <g clip-path="url(#cut)">
    <path d="M15 33 29 28 25 37 38 30 32 44 51 35" fill="none" stroke="#ff2f3d" stroke-width="4.6" stroke-linecap="square" stroke-linejoin="miter" opacity="0.95"/>
    <path d="M23 23h18M23 29h12M23 46h20" stroke="#0d1117" stroke-width="2" stroke-linecap="square" opacity="0.55"/>
  </g>

  <path d="M22 10h17l9 9v34H18V14a4 4 0 0 1 4-4Z" fill="none" stroke="url(#edge)" stroke-width="2.4" filter="url(#glow)"/>
  <path d="M22 39h7v4h-3v4h-4Zm10 0h4v12h-4Zm6 0h8v4h-4v8h-4Z" fill="#0d1117" opacity="0.92"/>
  <path d="M21.6 38.4h7v4h-3v4h-4Zm10 0h4v12h-4Zm6 0h8v4h-4v8h-4Z" fill="#39ff88" filter="url(#glow)"/>
</svg>
